<?xml version="1.0" encoding="UTF-8" standalone="no"?>
<!-- Created with Inkscape (http://www.inkscape.org/) -->

<svg
   xmlns:dc="http://purl.org/dc/elements/1.1/"
   xmlns:cc="http://creativecommons.org/ns#"
   xmlns:rdf="http://www.w3.org/1999/02/22-rdf-syntax-ns#"
   xmlns:svg="http://www.w3.org/2000/svg"
   xmlns="http://www.w3.org/2000/svg"
   xmlns:sodipodi="http://sodipodi.sourceforge.net/DTD/sodipodi-0.dtd"
   xmlns:inkscape="http://www.inkscape.org/namespaces/inkscape"
   version="1.1"
   id="svg2"
   xml:space="preserve"
   width="5723.501"
   height="1139.5131"
   viewBox="0 0 5723.501 1139.5131"
   sodipodi:docname="Mountian.svg"
   inkscape:version="0.92.5 (2060ec1f9f, 2020-04-08)"><metadata
     id="metadata8"><rdf:RDF><cc:Work
         rdf:about=""><dc:format>image/svg+xml</dc:format><dc:type
           rdf:resource="http://purl.org/dc/dcmitype/StillImage" /><dc:title></dc:title></cc:Work></rdf:RDF></metadata><defs
     id="defs6"><clipPath
       clipPathUnits="userSpaceOnUse"
       id="clipPath910"><rect
         style="opacity:0.73999999;fill:#FFFFFF;stroke-width:7.5"
         id="rect912"
         width="42926.258"
         height="8546.3486"
         x="3525.0085"
         y="-18908.9"
         transform="scale(1,-1)" /></clipPath></defs><sodipodi:namedview
     pagecolor="#ffffff"
     bordercolor="#666666"
     borderopacity="1"
     objecttolerance="10"
     gridtolerance="10"
     guidetolerance="10"
     inkscape:pageopacity="0"
     inkscape:pageshadow="2"
     inkscape:window-width="1920"
     inkscape:window-height="1025"
     id="namedview4"
     showgrid="false"
     inkscape:zoom="0.1416"
     inkscape:cx="2141.3891"
     inkscape:cy="408.72001"
     inkscape:window-x="1280"
     inkscape:window-y="0"
     inkscape:window-maximized="1"
     inkscape:current-layer="g10"
     fit-margin-top="0"
     fit-margin-left="0"
     fit-margin-right="0"
     fit-margin-bottom="0" /><g
     id="g10"
     inkscape:groupmode="layer"
     inkscape:label="ink_ext_XXXXXX"
     transform="matrix(1.3333333,0,0,-1.3333333,-505.31186,2881.3561)"><g
       id="g12"
       transform="matrix(0.1,0,0,0.1,26.483051,270.12712)"
       clip-path="url(#clipPath910)"><g
         id="g14"
         transform="scale(3.06748)"><path
           d="M 16300,0 H 0 V 16300 H 16300 V 0"
           style="fill:#444444;fill-opacity:0;fill-rule:nonzero;stroke:none"
           id="path16"
           inkscape:connector-curvature="0" /></g><g
         id="g18"
         transform="scale(2.38634)"><path
           d="M 9395.97,14301.6 H 5965.53 c -66.17,133.8 -125.8,273.2 -190.12,408.8 -112.98,238.2 -240.37,465 -442.73,629.3 l -135.4,159 c 201.32,123.4 406.11,249.6 560.19,428.4 61.14,70.9 113.56,149.3 179.56,215.7 53.98,54.3 116.29,99.7 181.87,139.3 14.88,8.9 31.01,17.9 48.36,17.1 24.47,-1 43.54,-20.7 59.88,-38.9 171.1,-191.4 342.16,-382.9 513.21,-574.3 151.28,-169.3 311.07,-344.5 523.32,-425.1 172.1,-65.3 362.01,-61.6 541.87,-101 181.45,-39.7 350.2,-122.8 514.59,-209.3 370.82,-195.2 730.24,-412 1075.84,-649"
           style="fill:#000000;fill-opacity:1;fill-rule:nonzero;stroke:none"
           id="path20"
           inkscape:connector-curvature="0" /></g><g
         id="g22"
         transform="scale(2.28163)"><path
           d="M 9730.26,14958 H 6239.32 c -69.2,139.9 -131.57,285.7 -198.85,427.6 1.45,50.9 2.85,101.9 4.26,152.8 2.62,93.1 5.52,187.9 36.02,275.9 62.11,179 225.85,299.7 380.65,409 38.48,27.1 78.98,55 125.66,61.1 120.57,15.6 203.1,-111 282.6,-203 144.02,-166.7 359.31,-253.5 572.05,-311.1 212.7,-57.5 433.38,-92.5 634.29,-183 152.87,-68.8 292.51,-169.1 453.8,-215 79.37,-22.5 161.99,-31.2 242.1,-50.9 126.45,-30.9 244.52,-88.4 363.47,-141.2 193.64,-85.8 392.4,-160 594.89,-222.2"
           style="fill:#ffffff;fill-opacity:1;fill-rule:nonzero;stroke:none"
           id="path24"
           inkscape:connector-curvature="0" /></g><g
         id="g26"
         transform="scale(2.43575)"><path
           d="M 7941.75,14011.9 H 1447.19 c 246.19,168.1 497.99,351.9 620.82,622.2 18.03,39.7 33.78,82 64.51,112.9 60.48,60.8 157.15,59.4 239.89,82.1 133.02,36.6 235.52,139.9 331.34,239.2 342.39,354.6 684.8,709.2 1027.19,1063.9 77.53,80.3 181.1,167.8 287.27,133.3 109.56,-35.7 138.75,-172.2 193.1,-273.8 173.91,-325.2 647.85,-317.5 939.72,-542.8 140.61,-108.6 235.73,-270.4 384.97,-366.8 110.31,-71.3 241.45,-101.1 368.1,-136.1 535.73,-148.3 1032.87,-408 1525.36,-665.9 170.75,-89.4 341.54,-178.8 512.29,-268.2"
           style="fill:#FFFFFF;fill-opacity:1;fill-rule:nonzero;stroke:none"
           id="path28"
           inkscape:connector-curvature="0" /></g><g
         id="g30"
         transform="scale(2.31009)"><path
           d="m 4451.99,15576.2 c 18.26,-176.5 237.82,-321.4 171.59,-486.1 -35.71,-88.8 -142.29,-126.9 -237.95,-129.8 -95.67,-2.8 -192.07,18.9 -286.59,3.8 -126.04,-20.1 -238.55,-104.2 -366.17,-105.3 -77.16,-0.7 -155.3,29.3 -229.95,9.7 -39.72,-10.4 -74.44,-34 -108.77,-56.6 -19.54,-12.9 -39.25,-25.5 -59.07,-37.9 H 1788.6 c 220.39,172.9 446.93,338 679.06,494.8 85.29,57.6 172.26,114.5 268.7,150.5 86.32,32.1 178.22,46.6 265.46,76.1 408.67,138.6 638.81,570.9 1001.58,804.6 175.4,-241.7 440.88,-399.2 698.71,-549.9 345.78,-202.1 691.53,-404.1 1037.27,-606.2 -457.43,-111.3 -933.16,122.2 -1287.39,432.3"
           style="fill:#ffffff;fill-opacity:1;fill-rule:nonzero;stroke:none"
           id="path32"
           inkscape:connector-curvature="0" /></g><g
         id="g34"
         transform="scale(2.85123)"><path
           d="m 16300,11969.8 h -4619.5 c 1.8,2 3.6,4 5.5,6 44.4,49.4 94.8,93.8 145.9,137.9 147.1,126.9 304,242.1 470.7,342 32.4,19.3 63.8,40.1 93.7,63.2 107.9,82.9 196.4,195.2 289.9,299.4 132.5,147.7 276.8,280.8 430.4,397.1 26.3,19.9 54.5,39.9 85.9,41.2 30,1.2 58.2,-15.1 84.9,-31.3 292.8,-177.9 575,-395.1 896.2,-482.8 198.3,-54 405.9,-56.8 600.4,-126.8 201.7,-72.6 379.3,-213.7 568.4,-323.2 183.7,-106.3 379.7,-183.2 581,-228 122.9,-27.4 250.5,-43.9 366.6,-94.7"
           style="fill:#FFFFFF;fill-opacity:1;fill-rule:nonzero;stroke:none"
           id="path36"
           inkscape:connector-curvature="0" /></g><g
         id="g38"
         transform="scale(2.58769)"><path
           d="m 16168.8,13415.6 c -309.6,-141.3 -665.2,-115.7 -1005.1,-132.8 -239.8,-12 -476.3,-46.4 -710.8,-94 h -1582.8 c 2,2.2 4,4.4 6,6.7 77.7,32.1 155.3,64.3 233,96.4 114,47.2 228.8,94.8 331.7,162.8 88.4,58.3 166.5,130.6 249.1,196.8 103.4,82.8 213.9,156 324.3,229.1 136.1,90.3 272.3,180.5 408.4,270.7 31.7,20.9 66.6,42.7 104.3,39.2 29.1,-2.7 54.5,-20.1 78.1,-37.5 216.1,-159 420,-363.5 685.1,-404.1 146.7,-22.5 305,7.3 438.5,-57.3 44.9,-21.7 84.9,-53.4 131.6,-70.7 98.2,-36.4 207.4,-3.9 311.8,-10.9 34.6,-2.4 72.9,-11.6 91.5,-41 36.5,-57.9 -32.4,-124.9 -94.7,-153.4"
           style="fill:#ffffff;fill-opacity:1;fill-rule:nonzero;stroke:none"
           id="path40"
           inkscape:connector-curvature="0" /></g><g
         id="g42"
         transform="scale(2.46456)"><path
           d="m 16300,13849.5 h -5886.7 c 189,96 346.8,260.8 543.3,347.6 177.3,78.4 383.4,92 542.7,202.4 118.9,82.5 197.5,209.5 291.3,319.7 324.6,381.4 845.1,575.3 1111.2,999.5 24.9,39.7 55.2,86 102,87.8 26.8,1 51.4,-13.7 74.2,-27.8 198.1,-123.2 396.2,-246.4 594.3,-369.7 204.8,-127.3 412,-256.6 577.4,-432 110.1,-116.8 199.5,-251.8 309.7,-368.6 259.4,-275.2 618.9,-434.1 980.2,-546.2 251.3,-78 508.7,-137 760.4,-212.7"
           style="fill:#FFFFFF;fill-opacity:1;fill-rule:nonzero;stroke:none"
           id="path44"
           inkscape:connector-curvature="0" /></g><g
         id="g46"
         transform="scale(2.29246)"><path
           d="m 14514,15519 c -25.9,-53.8 61.3,-85.8 100.1,-131.3 45,-52.8 14.9,-141.6 -44.6,-177.3 -59.5,-35.7 -134.9,-30.7 -202.4,-14.5 -217,52 -414.6,207.4 -636.7,186.3 22.8,-69.5 45.7,-139.1 68.5,-208.6 -119.3,-97.7 -301.9,-22.5 -449.5,-67.2 -51.2,-15.4 -96.7,-45 -144.8,-68.4 -82.5,-39.9 -172.4,-61.3 -259.2,-90.6 -49.4,-16.8 -97.9,-36.2 -145.2,-58.2 h -799.1 c 73.4,62.4 153.8,116.6 239.4,160.8 100.8,52.2 208,90.5 311,137.9 543.6,250.2 937.6,732.4 1400,1112.1 226.5,-362.4 593.7,-634.2 1006.4,-744.7 156.9,-42.1 342.5,-78.4 414,-224.2 -296.1,-27.8 -600.5,38.8 -857.9,187.9"
           style="fill:#ffffff;fill-opacity:1;fill-rule:nonzero;stroke:none"
           id="path48"
           inkscape:connector-curvature="0" /></g><g
         id="g50"
         transform="scale(1.68839)"><path
           d="M 8109.1,14166.1 H 2087.78 c 427.3,174 840.44,387.3 1193.33,682.8 184.06,154.1 351.52,330.3 555.15,457.4 315.76,197.1 730.45,290.3 911.36,615.6 52.92,95.2 83.29,207.5 165.54,278.7 114.76,99.4 295.7,81.9 425.92,3.9 130.22,-77.9 223.27,-203.5 319.69,-320.7 639.73,-778 1532.41,-1281.8 2450.33,-1717.7"
           style="fill:#FFFFFF;fill-opacity:1;fill-rule:nonzero;stroke:none"
           id="path52"
           inkscape:connector-curvature="0" /></g><g
         id="g54"
         transform="scale(1.59233)"><path
           d="m 6181.78,15398.9 c -133.57,-21.3 -84.56,-210.4 -73.45,-378.2 h -1876.5 c -27.06,9.7 -54.12,19.4 -81.17,29.1 -16.75,67.4 42.97,132.2 108.01,156.7 65,24.4 136.95,23.4 203.49,43.3 133.68,40 229.28,158.2 355.53,217.6 217.22,102.3 488.5,16.4 704.3,121.5 91.27,44.5 163.59,119.3 233.89,192.5 110.49,115.1 -41.89,403.5 68.61,518.6 195.04,-160 1463.69,-724.1 357.29,-901.1"
           style="fill:#ffffff;fill-opacity:1;fill-rule:nonzero;stroke:none"
           id="path56"
           inkscape:connector-curvature="0" /></g><g
         id="g58"
         transform="scale(1.75039)"><path
           d="M 12809.7,13664.3 H 4279.3 c 344.22,165.1 718.96,303.3 1027.18,517.9 200.79,139.8 379.76,317.6 606.54,409.6 169.56,68.7 357.06,85.4 525.02,157.9 323.41,139.6 523.54,458.8 735.84,739.9 200.92,266.1 428.93,511.7 679.27,732 43.88,38.5 94.1,78.4 152.48,77.5 105.41,-1.7 157.17,-123.6 212.3,-213.5 244.86,-399.1 865.23,-331.2 1226.07,-629.5 205.26,-169.7 307.81,-444.9 527.59,-595.3 172.41,-117.9 389.91,-140.8 592.01,-193.8 741,-194.4 1321.2,-815.7 2071,-972.8 57.8,-12.1 116.3,-21.4 175.1,-29.9"
           style="fill:#FFFFFF;fill-opacity:1;fill-rule:nonzero;stroke:none"
           id="path60"
           inkscape:connector-curvature="0" /></g><g
         id="g62"
         transform="scale(1.67006)"><path
           d="m 7655.92,14321.6 c 37.78,49.4 69.81,100.5 57.48,158.5 -19.04,89.1 -129.7,121 -220.83,122.3 -155.03,2.2 -315.92,-33.1 -461.73,19.6 -145.86,52.8 -252.02,251.8 -145.02,364.1 59.94,62.9 156.52,68.9 243.41,70.8 218.13,4.8 436.27,9.6 654.41,14.5 46.52,157.7 -220.18,267.3 -196.65,429.9 17.55,120.7 175.81,156.1 297,143.1 121.2,-13.1 262.99,-39 349.03,47.3 -154.72,120 -229.51,334.3 -182.99,524.5 239.04,83.8 459.39,-149.6 692.61,-248.4 137.67,-58.3 291.13,-69.9 430.53,-123.9 202.33,-78.3 359.33,-238.7 531.78,-370.3 427.75,-326.7 958.15,-480.4 1466.15,-657.9 415.4,-145 823.9,-310 1223.5,-494.1 H 7655.92"
           style="fill:#ffffff;fill-opacity:1;fill-rule:nonzero;stroke:none"
           id="path64"
           inkscape:connector-curvature="0" /></g><g
         id="g66"
         transform="scale(1.05914)"><path
           d="M 16300,9783.93 H 3328.18 c 96.16,95.27 202.99,180.61 314.25,253.97 380.31,250.8 818.35,399.4 1216.89,620.1 1794.46,994 2524.2,3259.5 4205.02,4435.4 126.92,88.9 263.43,172.7 416.61,196.2 237.26,36.1 470.38,-77.9 674.35,-204.6 770.4,-478 1379,-1169.9 2014.9,-1816.2 1265.2,-1286.5 2671.1,-2419.4 4129.8,-3484.87"
           style="fill:#FFFFFF;fill-opacity:1;fill-rule:nonzero;stroke:none"
           id="path68"
           inkscape:connector-curvature="0" /></g><path
         d="M 14684.1,10362.5 H 4755.89 c 404.39,235.5 848.67,414 1261.64,638.6 741,403 1394.22,966.6 1901.37,1640.7 284.26,377.7 528.18,794.9 890.28,1098.6 362.1,303.7 890.28,473 1312.82,261.2 262.8,-131.7 439.5,-384 654.7,-584.1 215.3,-200.1 529,-356 796.9,-235 135,60.9 246.7,187.9 394.8,192.6 206.8,6.6 337.9,-229.9 351.5,-436.4 13.5,-206.4 -38.1,-421 28.1,-617.1 99.7,-295.6 421.4,-441.1 699.5,-582.5 641.5,-325.9 1201.4,-803.8 1636.6,-1376.6"
         style="fill:#000000;fill-opacity:1;fill-rule:nonzero;stroke:none"
         id="path70"
         inkscape:connector-curvature="0" /><g
         id="g72"
         transform="scale(2.85123)"><path
           d="M 16300,3634.4 H 3877.77 c 257.68,237.2 515.39,474.36 773.07,711.52 794.71,731.44 1589.35,1462.88 2384.06,2194.32 32.44,29.84 68.22,61.27 112.13,65.27 54.19,4.94 101.85,-33.04 142.92,-68.78 360.62,-314.15 739.08,-643.51 1205.69,-748.55 519.6,-116.94 1070.91,63.79 1591.46,-49 535.9,-116.09 956.4,-522.27 1451.2,-758.59 256.9,-122.68 533.9,-199.39 789.1,-325.65 222.2,-109.91 425,-256.1 648.3,-363.7 1025.2,-493.89 2340.2,-120.75 3324.3,-656.84"
           style="fill:#FFFFFF;fill-opacity:1;fill-rule:nonzero;stroke:none"
           id="path74"
           inkscape:connector-curvature="0" /></g><g
         id="g76"



         transform="scale(2.67158)"><path
           d="M 16300,3878.79 H 9023.68 c -203.78,70.11 -412.34,122.43 -628.58,146.09 -555.1,60.83 -1129.74,-73.29 -1668.56,73.44 -76.7,20.89 -162.15,57.53 -184.16,133.89 -28.71,99.53 74.41,192.55 176.15,211.97 101.7,19.43 207.59,-4.72 309.85,11.68 30.77,4.9 62.02,14.07 85.31,34.77 73.81,65.58 17.4,194.87 -68.35,243.75 -85.8,48.89 -190.83,55.37 -276.28,104.85 -85.38,49.52 -139.88,180.15 -64.64,244.12 38.4,32.64 93.8,32.98 144.14,31.86 448.28,-10.41 896.89,-8.24 1345.08,6.47 36.87,1.2 76.81,3.6 105.07,27.48 53.53,45.25 29.24,135.16 -17.59,187.34 -46.79,52.21 -111.69,89.8 -143.28,152.42 -57.42,113.83 30.35,258.65 149.16,305.02 118.77,46.34 252.62,20.63 375.24,-14.22 357.96,-101.92 698.02,-278.04 1068.17,-316.52 286.49,-29.83 581.09,24.33 861.19,-42.67 394.8,-94.36 700.8,-413.91 1087.4,-537.92 240.7,-77.26 499.5,-74.3 746.8,-126.89 476.6,-101.21 885.7,-401.56 1345,-564.12 799.4,-282.98 1714.6,-139.24 2529.2,-312.81"
           style="fill:#000000;fill-opacity:1;fill-rule:nonzero;stroke:none"
           id="path78"
           inkscape:connector-curvature="0" /></g><g
         id="g80"
         transform="scale(2.17839)"><path
           d="m 16300,10979.6 h -3550.1 c 375.7,291.6 710.4,634.7 1016.6,999.1 256.9,305.7 794.2,460.5 1174.3,703.3 193.2,123.4 450.1,61 565.4,-137.2 321.8,-553.4 489.2,-1021.2 793.8,-1565.2"
           style="fill:#FFFFFF;fill-opacity:1;fill-rule:nonzero;stroke:none"
           id="path82"
           inkscape:connector-curvature="0" /></g><g
         id="g84"
         transform="scale(2.1224)"><path
           d="m 16300,11269.3 h -3040.4 c 378.4,230.3 756.8,460.6 1135.1,690.9 131.7,80.2 264.5,161.1 376.7,266.8 194.7,183.5 380.7,461.2 645.1,419.7 77.2,-203.5 -45.3,-423.5 -163.1,-606.5 210.7,139.5 471.9,200.7 722.7,169.4 41.1,-330.1 202.5,-629.4 323.9,-940.3"
           style="fill:#ffffff;fill-opacity:1;fill-rule:nonzero;stroke:none"
           id="path86"
           inkscape:connector-curvature="0" /></g><g
         id="g88"
         transform="scale(2.85123)"><path
           d="m 16300,8388.63 h -4966.4 c 253,304.54 542.9,578.39 861.8,813.02 150.8,110.94 309.5,214.51 435.7,352.8 115.7,126.93 200.2,278.9 305.1,414.94 163.6,212.21 374.3,382.51 560,575.71 149.4,155.4 557.4,240.5 824,371.2 140.6,69 310.8,17.4 390.5,-117.3 250.3,-422.9 276.7,-776.9 641.4,-1235.08 313.4,-393.83 626.9,-787.73 947.9,-1175.29"
           style="fill:#FFFFFF;fill-opacity:1;fill-rule:nonzero;stroke:none"
           id="path90"
           inkscape:connector-curvature="0" /></g><g
         id="g92"
         transform="scale(2.61502)"><path
           d="m 16270.2,9608.55 c -29.1,-35.71 -75.4,-51.51 -118.8,-67 -250,-89.21 -483.7,-224.05 -686.7,-395.21 h -2984.1 c 140.9,165.39 375.4,211.16 567.7,314.34 171.7,92.12 312,232.46 470.2,346.27 337.9,242.95 751.2,360.55 1098.6,589.75 320.6,211.6 573.3,510.1 872.5,751 47.3,38 112.9,75.8 164.1,43.4 38.2,-24.1 46.7,-75.6 48.2,-120.8 3.5,-106.9 -11,-214.5 -43,-316.6 -12.4,-39.7 -24.2,-90.9 8.6,-116.5 32.8,-25.4 84.4,-2.3 120.2,-23.4 50.2,-29.7 23.2,-107.7 -13.8,-152.8 -239.3,-292.3 -658.2,-400.4 -874,-710.42 427.1,-57.21 861.2,-62.33 1289.5,-15.26 23.7,2.6 49.1,5.05 70.1,-6.27 40.5,-21.91 39.8,-84.78 10.7,-120.5"
           style="fill:#ffffff;fill-opacity:1;fill-rule:nonzero;stroke:none"
           id="path94"
           inkscape:connector-curvature="0" /></g></g></g></svg>
